<svg xmlns="http://www.w3.org/2000/svg" width="189.499" height="35" viewBox="0 0 189.499 35"><g transform="translate(-18 -15.07)"><path d="M596.535,20.535h9.574V15.07H595.88a4.809,4.809,0,0,0-4.81,4.81V30.109h5.465Z" transform="translate(-418.568 0)" fill="lime"></path><path d="M649.268,69.353a3.924,3.924,0,1,1-3.923-3.923,3.923,3.923,0,0,1,3.923,3.923" transform="translate(-455.344 -36.783)" fill="lime"></path><path d="M675.329,15.07H665.1v5.465h9.574v9.574h5.465V19.88a4.807,4.807,0,0,0-4.81-4.81" transform="translate(-472.639 0)" fill="lime"></path><path d="M674.674,89.11v9.574H665.1v5.465h10.229a4.809,4.809,0,0,0,4.81-4.81V89.11Z" transform="translate(-472.639 -54.079)" fill="lime"></path><path d="M596.535,98.681V89.11H591.07V99.339a4.809,4.809,0,0,0,4.81,4.81h10.229V98.684h-9.574Z" transform="translate(-418.568 -54.079)" fill="lime"></path><path d="M121.361,69.748V50.15h-4.653v10.7a8.389,8.389,0,0,1-.553,3.3,4.067,4.067,0,0,1-4.049,2.421,3.175,3.175,0,0,1-3.173-1.76,6.824,6.824,0,0,1-.442-2.769V50.15h-4.71V62.04a12.178,12.178,0,0,0,.838,5.12c.971,2.017,2.9,3.038,5.732,3.038a7.843,7.843,0,0,0,2.6-.388,7.072,7.072,0,0,0,2.289-1.459,3.377,3.377,0,0,0,.639-.741c.21-.329.337-.518.4-.593l.658-.825V69.75h4.427Z" transform="translate(-62.653 -25.622)" fill="#fff"></path><path d="M198.548,53.013c.167,0,.38.005.652.019.156.008.329.019.51.035V48.376c-.054,0-.094-.008-.121-.008q-.085-.008-.218-.008a5.505,5.505,0,0,0-3.645,1.165,10.9,10.9,0,0,0-2.065,2.688l-.685,1.132v-4.5H188.64v19.6h4.616V59.09a8.5,8.5,0,0,1,.658-3.791c.8-1.518,2.359-2.286,4.635-2.286" transform="translate(-124.635 -24.315)" fill="#fff"></path><rect width="4.653" height="19.598" transform="translate(79.556 24.53)" fill="#fff"></rect><path d="M293.194,61a6.142,6.142,0,1,1,0-5.505l3.683-2.124a10.388,10.388,0,1,0,0,9.76Z" transform="translate(-189.406 -23.95)" fill="#fff"></path><path d="M368.2,48.03a10.341,10.341,0,1,0,10.339,10.339A10.35,10.35,0,0,0,368.2,48.03m0,16.343a6,6,0,1,1,6-6,6.008,6.008,0,0,1-6,6" transform="translate(-248.232 -24.074)" fill="#fff"></path><path d="M466.742,52.282a3.007,3.007,0,0,1,2.941,1.623,4.645,4.645,0,0,1,.412,2.068v12.58h4.71L474.84,56.1a17.952,17.952,0,0,0-.181-2.936,5.492,5.492,0,0,0-1.081-2.445,5.588,5.588,0,0,0-2.219-1.717,6.75,6.75,0,0,0-2.513-.5,7.558,7.558,0,0,0-3.486.8,6.412,6.412,0,0,0-2.445,2.491l-.38.652-.28-.7a5.6,5.6,0,0,0-1.639-2.289,7.037,7.037,0,0,0-7.328.17,8.256,8.256,0,0,0-1.777,2.16l-.682,1.095V48.99H446.4V68.55h4.653V56.682a6.026,6.026,0,0,1,.472-2.669,3.493,3.493,0,0,1,3.386-1.674,2.952,2.952,0,0,1,2.966,1.69,7.027,7.027,0,0,1,.407,2.785V68.552H462.9V56.811a6.157,6.157,0,0,1,.461-2.483,3.422,3.422,0,0,1,3.381-2.046" transform="translate(-312.902 -24.424)" fill="#fff"></path><path d="M22.51,55.991l.046-.259a5.467,5.467,0,0,1,5.476-4.767c3.1,0,5.414,1.971,5.624,4.791l.016.237H22.51Zm5.708-8.681C22.109,47.31,18,51.548,18,57.857c0,6.233,4.2,10.585,10.218,10.585a11.088,11.088,0,0,0,3.834-.666,8.281,8.281,0,0,0,4.977-4.292l.154-.337H32.769c-1.124,1.345-2.612,1.639-4.554,1.639A5.521,5.521,0,0,1,22.5,59.747l-.032-.248H38.018l.019-.127a13.371,13.371,0,0,0,.135-2c0-5.929-4.09-10.067-9.954-10.067" transform="translate(0 -23.548)" fill="#fff"></path><path d="M250.476,23.6a2.618,2.618,0,1,1-2.618-2.618,2.619,2.619,0,0,1,2.618,2.618" transform="translate(-165.975 -4.317)" fill="#fff"></path></g></svg>