<svg width="26" height="26" viewBox="0 0 26 26" fill="none" xmlns="http://www.w3.org/2000/svg">
<g id="Vitarum-logo 1" clip-path="url(#clip0_110_137)">
<g id="Group">
<g id="Clip path group">
<mask id="mask0_110_137" style="mask-type:luminance" maskUnits="userSpaceOnUse" x="-1" y="-1" width="30" height="27">
<g id="SVGID_2_">
<path id="Vector" d="M16.8217 23.8411C16.0385 25.2803 15.0988 25.9686 13.7831 25.9686C12.4675 25.9686 11.7783 25.3429 11.0265 23.9662C7.48674 17.4271 3.75903 12.6714 0.344568 6.6329C-4.04097 -1.189 4.66746 -0.469385 13.7205 -0.469385C22.7735 -0.469385 30.7614 -1.56445 27.0964 6.6329C24.0265 13.5162 19.0458 19.805 16.8217 23.8411Z" fill="white"/>
</g>
</mask>
<g mask="url(#mask0_110_137)">
<g id="Group_2">
<path id="Vector_2" d="M17.4512 25.2674L4.42163 1.28857L0.0165417 3.67644L13.0461 27.6553L17.4512 25.2674Z" fill="#16C77C"/>
<path id="Vector_3" d="M16.8923 25.9362L9.96008 3.3833L5.16857 4.85257L12.1008 27.4054L16.8923 25.9362Z" fill="#F40D74"/>
<path id="Vector_4" d="M15.4746 27.5957L10.4313 25.8749L18.7325 0L23.4939 1.53309L15.4746 27.5957Z" fill="#FC5B19"/>
<path id="Vector_5" d="M15.2241 26.4379L16.7903 25.5932L15.6939 22.0264L6.20237 4.53662L5.16864 4.8495L11.0578 23.9975L12.7807 27.1888L15.2241 26.4379Z" fill="#D30074"/>
<path id="Vector_6" d="M11.747 26.3129L13.5952 26.9387L15.8819 26.2503L16.4458 24.4669L13.7205 15.6125L11.0265 23.9663L11.747 26.3129Z" fill="#F23B3B"/>
<path id="Vector_7" d="M16.4458 24.4668L15.694 22.0264L13.1566 17.3645L11.0265 23.9662L11.0578 23.9975L12.4361 26.5631L13.5952 26.9385L15.2241 26.4379L15.9446 26.0625L16.4458 24.4668Z" fill="#E52000"/>
<path id="Vector_8" d="M25.9813 6.92034L21.5707 4.54248L10.3665 25.2749L14.7771 27.6528L25.9813 6.92034Z" fill="#1291D4"/>
<path id="Vector_9" d="M10.9951 24.0913L10.5879 25.4054L12.906 26.6569L14.9734 27.314L15.8819 26.2815L22.3975 5.0059L21.5517 4.56787L10.9951 24.0913Z" fill="#0B75AF"/>
<path id="Vector_10" d="M11.653 25.9688L13.5012 26.97L15.4747 26.3755L16.4771 24.5296L14.4096 17.8027L11.0578 23.9977L11.653 25.9688Z" fill="#2B5CA3"/>
</g>
</g>
</g>
</g>
</g>
<defs>
<clipPath id="clip0_110_137">
<rect width="26" height="26" fill="white"/>
</clipPath>
</defs>
</svg>
